<mxfile host="65bd71144e">
    <diagram id="k9nmeB11Dy71OmQFfP_S" name="Post Recipe">
        <mxGraphModel dx="777" dy="469" grid="1" gridSize="10" guides="1" tooltips="1" connect="1" arrows="1" fold="1" page="1" pageScale="1" pageWidth="827" pageHeight="1169" math="0" shadow="0">
            <root>
                <mxCell id="0"/>
                <mxCell id="1" parent="0"/>
                <mxCell id="2" value="" style="shape=umlLifeline;participant=umlActor;perimeter=lifelinePerimeter;whiteSpace=wrap;html=1;container=1;collapsible=0;recursiveResize=0;verticalAlign=top;spacingTop=36;outlineConnect=0;" parent="1" vertex="1">
                    <mxGeometry x="50" y="80" width="20" height="510" as="geometry"/>
                </mxCell>
                <mxCell id="3" value="" style="html=1;points=[];perimeter=orthogonalPerimeter;" parent="2" vertex="1">
                    <mxGeometry x="5" y="70" width="10" height="160" as="geometry"/>
                </mxCell>
                <mxCell id="36" value="" style="html=1;points=[];perimeter=orthogonalPerimeter;" parent="2" vertex="1">
                    <mxGeometry x="5" y="250" width="10" height="240" as="geometry"/>
                </mxCell>
                <mxCell id="4" value="Web Server" style="shape=umlLifeline;perimeter=lifelinePerimeter;whiteSpace=wrap;html=1;container=1;collapsible=0;recursiveResize=0;outlineConnect=0;" parent="1" vertex="1">
                    <mxGeometry x="200" y="80" width="100" height="510" as="geometry"/>
                </mxCell>
                <mxCell id="5" value="" style="html=1;points=[];perimeter=orthogonalPerimeter;" parent="4" vertex="1">
                    <mxGeometry x="45" y="70" width="10" height="160" as="geometry"/>
                </mxCell>
                <mxCell id="39" value="" style="html=1;points=[];perimeter=orthogonalPerimeter;" parent="4" vertex="1">
                    <mxGeometry x="45" y="250" width="10" height="240" as="geometry"/>
                </mxCell>
                <mxCell id="8" value="Application Server" style="shape=umlLifeline;perimeter=lifelinePerimeter;whiteSpace=wrap;html=1;container=1;collapsible=0;recursiveResize=0;outlineConnect=0;" parent="1" vertex="1">
                    <mxGeometry x="360" y="80" width="100" height="510" as="geometry"/>
                </mxCell>
                <mxCell id="9" value="" style="html=1;points=[];perimeter=orthogonalPerimeter;" parent="8" vertex="1">
                    <mxGeometry x="44" y="70" width="10" height="160" as="geometry"/>
                </mxCell>
                <mxCell id="40" value="" style="html=1;points=[];perimeter=orthogonalPerimeter;" parent="8" vertex="1">
                    <mxGeometry x="44" y="250" width="10" height="240" as="geometry"/>
                </mxCell>
                <mxCell id="10" value="Database Server" style="shape=umlLifeline;perimeter=lifelinePerimeter;whiteSpace=wrap;html=1;container=1;collapsible=0;recursiveResize=0;outlineConnect=0;" parent="1" vertex="1">
                    <mxGeometry x="570" y="80" width="100" height="510" as="geometry"/>
                </mxCell>
                <mxCell id="11" value="" style="html=1;points=[];perimeter=orthogonalPerimeter;" parent="10" vertex="1">
                    <mxGeometry x="45" y="70" width="10" height="160" as="geometry"/>
                </mxCell>
                <mxCell id="41" value="" style="html=1;points=[];perimeter=orthogonalPerimeter;" parent="10" vertex="1">
                    <mxGeometry x="45" y="250" width="10" height="240" as="geometry"/>
                </mxCell>
                <mxCell id="12" value="Request to post a recipe&amp;nbsp;" style="edgeStyle=none;html=1;entryX=0.081;entryY=0.136;entryDx=0;entryDy=0;entryPerimeter=0;" parent="1" source="3" target="5" edge="1">
                    <mxGeometry relative="1" as="geometry"/>
                </mxCell>
                <mxCell id="13" style="edgeStyle=none;html=1;" parent="1" source="5" target="8" edge="1">
                    <mxGeometry relative="1" as="geometry">
                        <Array as="points">
                            <mxPoint x="345" y="176"/>
                        </Array>
                    </mxGeometry>
                </mxCell>
                <mxCell id="14" value="Forward request" style="edgeLabel;html=1;align=center;verticalAlign=middle;resizable=0;points=[];" parent="13" vertex="1" connectable="0">
                    <mxGeometry x="0.0746" relative="1" as="geometry">
                        <mxPoint x="-13" y="-6" as="offset"/>
                    </mxGeometry>
                </mxCell>
                <mxCell id="15" style="edgeStyle=none;html=1;entryX=-0.065;entryY=0.255;entryDx=0;entryDy=0;entryPerimeter=0;" parent="1" source="9" target="11" edge="1">
                    <mxGeometry relative="1" as="geometry">
                        <Array as="points">
                            <mxPoint x="510" y="190"/>
                        </Array>
                    </mxGeometry>
                </mxCell>
                <mxCell id="16" value="Validate user creds" style="edgeLabel;html=1;align=center;verticalAlign=middle;resizable=0;points=[];" parent="15" vertex="1" connectable="0">
                    <mxGeometry x="-0.1139" y="-2" relative="1" as="geometry">
                        <mxPoint y="-21" as="offset"/>
                    </mxGeometry>
                </mxCell>
                <mxCell id="19" style="edgeStyle=none;html=1;fontSize=10;" parent="1" source="11" target="9" edge="1">
                    <mxGeometry relative="1" as="geometry">
                        <Array as="points">
                            <mxPoint x="520" y="200"/>
                        </Array>
                    </mxGeometry>
                </mxCell>
                <mxCell id="20" value="Return user creds" style="edgeLabel;html=1;align=center;verticalAlign=middle;resizable=0;points=[];fontSize=10;" parent="19" vertex="1" connectable="0">
                    <mxGeometry x="0.1369" y="3" relative="1" as="geometry">
                        <mxPoint x="7" as="offset"/>
                    </mxGeometry>
                </mxCell>
                <mxCell id="27" style="edgeStyle=none;html=1;entryX=1.077;entryY=0.926;entryDx=0;entryDy=0;entryPerimeter=0;fontSize=10;" parent="1" source="5" target="3" edge="1">
                    <mxGeometry relative="1" as="geometry"/>
                </mxCell>
                <mxCell id="28" value="Display recipe posting form" style="edgeLabel;html=1;align=center;verticalAlign=middle;resizable=0;points=[];fontSize=10;" parent="27" vertex="1" connectable="0">
                    <mxGeometry x="0.12" y="1" relative="1" as="geometry">
                        <mxPoint x="6" y="-9" as="offset"/>
                    </mxGeometry>
                </mxCell>
                <mxCell id="29" style="edgeStyle=none;html=1;" parent="1" source="9" target="10" edge="1">
                    <mxGeometry relative="1" as="geometry">
                        <Array as="points">
                            <mxPoint x="520" y="220"/>
                        </Array>
                    </mxGeometry>
                </mxCell>
                <mxCell id="30" value="Validate user role as &quot;recipe creator&quot;" style="edgeLabel;html=1;align=center;verticalAlign=middle;resizable=0;points=[];" parent="29" vertex="1" connectable="0">
                    <mxGeometry x="-0.1188" relative="1" as="geometry">
                        <mxPoint x="5" as="offset"/>
                    </mxGeometry>
                </mxCell>
                <mxCell id="32" style="edgeStyle=none;html=1;" parent="1" source="11" target="8" edge="1">
                    <mxGeometry relative="1" as="geometry">
                        <Array as="points">
                            <mxPoint x="520" y="240"/>
                        </Array>
                    </mxGeometry>
                </mxCell>
                <mxCell id="33" value="Return user role" style="edgeLabel;html=1;align=center;verticalAlign=middle;resizable=0;points=[];" parent="32" vertex="1" connectable="0">
                    <mxGeometry x="0.1934" relative="1" as="geometry">
                        <mxPoint as="offset"/>
                    </mxGeometry>
                </mxCell>
                <mxCell id="34" style="edgeStyle=none;html=1;" parent="1" source="9" target="4" edge="1">
                    <mxGeometry relative="1" as="geometry">
                        <Array as="points">
                            <mxPoint x="330" y="250"/>
                        </Array>
                    </mxGeometry>
                </mxCell>
                <mxCell id="35" value="Return user role" style="edgeLabel;html=1;align=center;verticalAlign=middle;resizable=0;points=[];" parent="34" vertex="1" connectable="0">
                    <mxGeometry x="0.1018" y="-1" relative="1" as="geometry">
                        <mxPoint x="11" as="offset"/>
                    </mxGeometry>
                </mxCell>
                <mxCell id="42" style="edgeStyle=none;html=1;" parent="1" source="36" target="4" edge="1">
                    <mxGeometry relative="1" as="geometry">
                        <Array as="points">
                            <mxPoint x="160" y="340"/>
                        </Array>
                    </mxGeometry>
                </mxCell>
                <mxCell id="43" value="Submit Recipe" style="edgeLabel;html=1;align=center;verticalAlign=middle;resizable=0;points=[];" parent="42" vertex="1" connectable="0">
                    <mxGeometry x="-0.1111" y="2" relative="1" as="geometry">
                        <mxPoint as="offset"/>
                    </mxGeometry>
                </mxCell>
                <mxCell id="44" style="edgeStyle=none;html=1;" parent="1" source="39" target="8" edge="1">
                    <mxGeometry relative="1" as="geometry">
                        <Array as="points">
                            <mxPoint x="330" y="360"/>
                        </Array>
                    </mxGeometry>
                </mxCell>
                <mxCell id="45" value="Forward submission" style="edgeLabel;html=1;align=center;verticalAlign=middle;resizable=0;points=[];" parent="44" vertex="1" connectable="0">
                    <mxGeometry x="-0.213" y="2" relative="1" as="geometry">
                        <mxPoint x="4" as="offset"/>
                    </mxGeometry>
                </mxCell>
                <mxCell id="56" style="edgeStyle=none;html=1;" parent="1" source="40" target="10" edge="1">
                    <mxGeometry relative="1" as="geometry">
                        <Array as="points">
                            <mxPoint x="520" y="510"/>
                        </Array>
                    </mxGeometry>
                </mxCell>
                <mxCell id="57" value="Store recipe in database" style="edgeLabel;html=1;align=center;verticalAlign=middle;resizable=0;points=[];" parent="56" vertex="1" connectable="0">
                    <mxGeometry x="-0.1806" y="-1" relative="1" as="geometry">
                        <mxPoint x="12" as="offset"/>
                    </mxGeometry>
                </mxCell>
                <mxCell id="58" style="edgeStyle=none;html=1;" parent="1" source="41" target="8" edge="1">
                    <mxGeometry relative="1" as="geometry">
                        <Array as="points">
                            <mxPoint x="510" y="540"/>
                        </Array>
                    </mxGeometry>
                </mxCell>
                <mxCell id="59" value="Return result of storing recipe&amp;nbsp;" style="edgeLabel;html=1;align=center;verticalAlign=middle;resizable=0;points=[];" parent="58" vertex="1" connectable="0">
                    <mxGeometry x="0.1613" y="-1" relative="1" as="geometry">
                        <mxPoint x="14" as="offset"/>
                    </mxGeometry>
                </mxCell>
                <mxCell id="0tSjMVFs-fXRxdkIFizs-59" value="Validate form details" style="edgeStyle=none;html=1;" edge="1" parent="1" source="39" target="8">
                    <mxGeometry relative="1" as="geometry">
                        <Array as="points">
                            <mxPoint x="280" y="390"/>
                        </Array>
                    </mxGeometry>
                </mxCell>
                <mxCell id="0tSjMVFs-fXRxdkIFizs-61" style="edgeStyle=none;html=1;" edge="1" parent="1" source="40" target="4">
                    <mxGeometry relative="1" as="geometry">
                        <Array as="points">
                            <mxPoint x="310" y="410"/>
                        </Array>
                    </mxGeometry>
                </mxCell>
                <mxCell id="0tSjMVFs-fXRxdkIFizs-62" value="Return validation results" style="edgeLabel;html=1;align=center;verticalAlign=middle;resizable=0;points=[];" vertex="1" connectable="0" parent="0tSjMVFs-fXRxdkIFizs-61">
                    <mxGeometry x="0.0215" y="1" relative="1" as="geometry">
                        <mxPoint as="offset"/>
                    </mxGeometry>
                </mxCell>
                <mxCell id="0tSjMVFs-fXRxdkIFizs-63" value="Submit form" style="edgeStyle=none;html=1;" edge="1" parent="1" source="39" target="8">
                    <mxGeometry relative="1" as="geometry"/>
                </mxCell>
                <mxCell id="0tSjMVFs-fXRxdkIFizs-64" style="edgeStyle=none;html=1;" edge="1" parent="1">
                    <mxGeometry relative="1" as="geometry">
                        <mxPoint x="404" y="550" as="sourcePoint"/>
                        <mxPoint x="249.875" y="550" as="targetPoint"/>
                        <Array as="points">
                            <mxPoint x="330" y="550"/>
                        </Array>
                    </mxGeometry>
                </mxCell>
                <mxCell id="0tSjMVFs-fXRxdkIFizs-65" value="Return result of storing &lt;br&gt;recipe" style="edgeLabel;html=1;align=center;verticalAlign=middle;resizable=0;points=[];" vertex="1" connectable="0" parent="0tSjMVFs-fXRxdkIFizs-64">
                    <mxGeometry x="0.1351" relative="1" as="geometry">
                        <mxPoint x="14" as="offset"/>
                    </mxGeometry>
                </mxCell>
                <mxCell id="0tSjMVFs-fXRxdkIFizs-66" style="edgeStyle=none;html=1;" edge="1" parent="1" source="39" target="2">
                    <mxGeometry relative="1" as="geometry">
                        <Array as="points">
                            <mxPoint x="160" y="560"/>
                        </Array>
                    </mxGeometry>
                </mxCell>
                <mxCell id="0tSjMVFs-fXRxdkIFizs-67" value="Display success message" style="edgeLabel;html=1;align=center;verticalAlign=middle;resizable=0;points=[];" vertex="1" connectable="0" parent="0tSjMVFs-fXRxdkIFizs-66">
                    <mxGeometry x="0.1179" y="-1" relative="1" as="geometry">
                        <mxPoint x="19" as="offset"/>
                    </mxGeometry>
                </mxCell>
            </root>
        </mxGraphModel>
    </diagram>
    <diagram id="EfmhSxGXE5lYYd_HCXMW" name="Check posted recipes' feedback">
        <mxGraphModel dx="994" dy="600" grid="1" gridSize="10" guides="1" tooltips="1" connect="1" arrows="1" fold="1" page="1" pageScale="1" pageWidth="827" pageHeight="1169" math="0" shadow="0">
            <root>
                <mxCell id="irRmFtegKo54uXfVSEla-0"/>
                <mxCell id="irRmFtegKo54uXfVSEla-1" parent="irRmFtegKo54uXfVSEla-0"/>
                <mxCell id="irRmFtegKo54uXfVSEla-2" value="" style="shape=umlLifeline;participant=umlActor;perimeter=lifelinePerimeter;whiteSpace=wrap;html=1;container=1;collapsible=0;recursiveResize=0;verticalAlign=top;spacingTop=36;outlineConnect=0;" parent="irRmFtegKo54uXfVSEla-1" vertex="1">
                    <mxGeometry x="50" y="80" width="20" height="510" as="geometry"/>
                </mxCell>
                <mxCell id="irRmFtegKo54uXfVSEla-3" value="" style="html=1;points=[];perimeter=orthogonalPerimeter;" parent="irRmFtegKo54uXfVSEla-2" vertex="1">
                    <mxGeometry x="5" y="70" width="10" height="160" as="geometry"/>
                </mxCell>
                <mxCell id="irRmFtegKo54uXfVSEla-5" value="Web Server" style="shape=umlLifeline;perimeter=lifelinePerimeter;whiteSpace=wrap;html=1;container=1;collapsible=0;recursiveResize=0;outlineConnect=0;" parent="irRmFtegKo54uXfVSEla-1" vertex="1">
                    <mxGeometry x="200" y="80" width="100" height="510" as="geometry"/>
                </mxCell>
                <mxCell id="irRmFtegKo54uXfVSEla-6" value="" style="html=1;points=[];perimeter=orthogonalPerimeter;" parent="irRmFtegKo54uXfVSEla-5" vertex="1">
                    <mxGeometry x="45" y="70" width="10" height="160" as="geometry"/>
                </mxCell>
                <mxCell id="irRmFtegKo54uXfVSEla-8" value="Application Server" style="shape=umlLifeline;perimeter=lifelinePerimeter;whiteSpace=wrap;html=1;container=1;collapsible=0;recursiveResize=0;outlineConnect=0;" parent="irRmFtegKo54uXfVSEla-1" vertex="1">
                    <mxGeometry x="360" y="80" width="100" height="510" as="geometry"/>
                </mxCell>
                <mxCell id="irRmFtegKo54uXfVSEla-9" value="" style="html=1;points=[];perimeter=orthogonalPerimeter;" parent="irRmFtegKo54uXfVSEla-8" vertex="1">
                    <mxGeometry x="44" y="70" width="10" height="160" as="geometry"/>
                </mxCell>
                <mxCell id="irRmFtegKo54uXfVSEla-11" value="Database Server" style="shape=umlLifeline;perimeter=lifelinePerimeter;whiteSpace=wrap;html=1;container=1;collapsible=0;recursiveResize=0;outlineConnect=0;" parent="irRmFtegKo54uXfVSEla-1" vertex="1">
                    <mxGeometry x="570" y="80" width="100" height="510" as="geometry"/>
                </mxCell>
                <mxCell id="irRmFtegKo54uXfVSEla-12" value="" style="html=1;points=[];perimeter=orthogonalPerimeter;" parent="irRmFtegKo54uXfVSEla-11" vertex="1">
                    <mxGeometry x="45" y="70" width="10" height="160" as="geometry"/>
                </mxCell>
                <mxCell id="irRmFtegKo54uXfVSEla-14" value="Request to view feedback of&lt;br&gt;posted recipes" style="edgeStyle=none;html=1;entryX=0.081;entryY=0.136;entryDx=0;entryDy=0;entryPerimeter=0;" parent="irRmFtegKo54uXfVSEla-1" source="irRmFtegKo54uXfVSEla-3" target="irRmFtegKo54uXfVSEla-6" edge="1">
                    <mxGeometry relative="1" as="geometry"/>
                </mxCell>
                <mxCell id="irRmFtegKo54uXfVSEla-15" style="edgeStyle=none;html=1;" parent="irRmFtegKo54uXfVSEla-1" source="irRmFtegKo54uXfVSEla-6" target="irRmFtegKo54uXfVSEla-8" edge="1">
                    <mxGeometry relative="1" as="geometry">
                        <Array as="points">
                            <mxPoint x="345" y="176"/>
                        </Array>
                    </mxGeometry>
                </mxCell>
                <mxCell id="irRmFtegKo54uXfVSEla-16" value="Forward request" style="edgeLabel;html=1;align=center;verticalAlign=middle;resizable=0;points=[];" parent="irRmFtegKo54uXfVSEla-15" vertex="1" connectable="0">
                    <mxGeometry x="0.0746" relative="1" as="geometry">
                        <mxPoint x="-13" y="-6" as="offset"/>
                    </mxGeometry>
                </mxCell>
                <mxCell id="irRmFtegKo54uXfVSEla-17" style="edgeStyle=none;html=1;entryX=-0.065;entryY=0.255;entryDx=0;entryDy=0;entryPerimeter=0;" parent="irRmFtegKo54uXfVSEla-1" source="irRmFtegKo54uXfVSEla-9" target="irRmFtegKo54uXfVSEla-12" edge="1">
                    <mxGeometry relative="1" as="geometry">
                        <Array as="points">
                            <mxPoint x="510" y="190"/>
                        </Array>
                    </mxGeometry>
                </mxCell>
                <mxCell id="irRmFtegKo54uXfVSEla-18" value="Validate user creds" style="edgeLabel;html=1;align=center;verticalAlign=middle;resizable=0;points=[];" parent="irRmFtegKo54uXfVSEla-17" vertex="1" connectable="0">
                    <mxGeometry x="-0.1139" y="-2" relative="1" as="geometry">
                        <mxPoint y="-21" as="offset"/>
                    </mxGeometry>
                </mxCell>
                <mxCell id="irRmFtegKo54uXfVSEla-19" style="edgeStyle=none;html=1;fontSize=10;" parent="irRmFtegKo54uXfVSEla-1" source="irRmFtegKo54uXfVSEla-12" target="irRmFtegKo54uXfVSEla-9" edge="1">
                    <mxGeometry relative="1" as="geometry">
                        <Array as="points">
                            <mxPoint x="520" y="200"/>
                        </Array>
                    </mxGeometry>
                </mxCell>
                <mxCell id="irRmFtegKo54uXfVSEla-20" value="Return user creds" style="edgeLabel;html=1;align=center;verticalAlign=middle;resizable=0;points=[];fontSize=10;" parent="irRmFtegKo54uXfVSEla-19" vertex="1" connectable="0">
                    <mxGeometry x="0.1369" y="3" relative="1" as="geometry">
                        <mxPoint x="7" as="offset"/>
                    </mxGeometry>
                </mxCell>
                <mxCell id="irRmFtegKo54uXfVSEla-21" style="edgeStyle=none;html=1;entryX=1.077;entryY=0.926;entryDx=0;entryDy=0;entryPerimeter=0;fontSize=10;" parent="irRmFtegKo54uXfVSEla-1" source="irRmFtegKo54uXfVSEla-6" target="irRmFtegKo54uXfVSEla-3" edge="1">
                    <mxGeometry relative="1" as="geometry"/>
                </mxCell>
                <mxCell id="irRmFtegKo54uXfVSEla-22" value="Display feedback on user's recipes" style="edgeLabel;html=1;align=center;verticalAlign=middle;resizable=0;points=[];fontSize=10;" parent="irRmFtegKo54uXfVSEla-21" vertex="1" connectable="0">
                    <mxGeometry x="0.12" y="1" relative="1" as="geometry">
                        <mxPoint x="15" y="-9" as="offset"/>
                    </mxGeometry>
                </mxCell>
                <mxCell id="irRmFtegKo54uXfVSEla-23" style="edgeStyle=none;html=1;" parent="irRmFtegKo54uXfVSEla-1" source="irRmFtegKo54uXfVSEla-9" target="irRmFtegKo54uXfVSEla-11" edge="1">
                    <mxGeometry relative="1" as="geometry">
                        <Array as="points">
                            <mxPoint x="520" y="230"/>
                        </Array>
                    </mxGeometry>
                </mxCell>
                <mxCell id="irRmFtegKo54uXfVSEla-24" value="Retrieve feedback on user's recipes &lt;br&gt;from database&amp;nbsp;" style="edgeLabel;html=1;align=center;verticalAlign=middle;resizable=0;points=[];" parent="irRmFtegKo54uXfVSEla-23" vertex="1" connectable="0">
                    <mxGeometry x="-0.1188" relative="1" as="geometry">
                        <mxPoint x="5" as="offset"/>
                    </mxGeometry>
                </mxCell>
                <mxCell id="irRmFtegKo54uXfVSEla-25" style="edgeStyle=none;html=1;" parent="irRmFtegKo54uXfVSEla-1" source="irRmFtegKo54uXfVSEla-12" target="irRmFtegKo54uXfVSEla-8" edge="1">
                    <mxGeometry relative="1" as="geometry">
                        <Array as="points">
                            <mxPoint x="520" y="260"/>
                        </Array>
                    </mxGeometry>
                </mxCell>
                <mxCell id="irRmFtegKo54uXfVSEla-26" value="Return feedbacks" style="edgeLabel;html=1;align=center;verticalAlign=middle;resizable=0;points=[];" parent="irRmFtegKo54uXfVSEla-25" vertex="1" connectable="0">
                    <mxGeometry x="0.1934" relative="1" as="geometry">
                        <mxPoint as="offset"/>
                    </mxGeometry>
                </mxCell>
                <mxCell id="irRmFtegKo54uXfVSEla-27" style="edgeStyle=none;html=1;" parent="irRmFtegKo54uXfVSEla-1" source="irRmFtegKo54uXfVSEla-9" target="irRmFtegKo54uXfVSEla-5" edge="1">
                    <mxGeometry relative="1" as="geometry">
                        <Array as="points">
                            <mxPoint x="330" y="270"/>
                        </Array>
                    </mxGeometry>
                </mxCell>
                <mxCell id="irRmFtegKo54uXfVSEla-28" value="Return feedbacks" style="edgeLabel;html=1;align=center;verticalAlign=middle;resizable=0;points=[];" parent="irRmFtegKo54uXfVSEla-27" vertex="1" connectable="0">
                    <mxGeometry x="0.1018" y="-1" relative="1" as="geometry">
                        <mxPoint x="11" as="offset"/>
                    </mxGeometry>
                </mxCell>
            </root>
        </mxGraphModel>
    </diagram>
    <diagram id="CJ0BxXJmqBjWFU7s27f9" name="Report Recipe">
        <mxGraphModel dx="956" dy="577" grid="1" gridSize="10" guides="1" tooltips="1" connect="1" arrows="1" fold="1" page="1" pageScale="1" pageWidth="827" pageHeight="1169" math="0" shadow="0">
            <root>
                <mxCell id="XPOvYixQ1RFFN7VO0uJJ-0"/>
                <mxCell id="XPOvYixQ1RFFN7VO0uJJ-1" parent="XPOvYixQ1RFFN7VO0uJJ-0"/>
                <mxCell id="j-PByQghvazbKlvodV0V-0" value="" style="shape=umlLifeline;participant=umlActor;perimeter=lifelinePerimeter;whiteSpace=wrap;html=1;container=1;collapsible=0;recursiveResize=0;verticalAlign=top;spacingTop=36;outlineConnect=0;" vertex="1" parent="XPOvYixQ1RFFN7VO0uJJ-1">
                    <mxGeometry x="50" y="80" width="20" height="510" as="geometry"/>
                </mxCell>
                <mxCell id="j-PByQghvazbKlvodV0V-1" value="" style="html=1;points=[];perimeter=orthogonalPerimeter;" vertex="1" parent="j-PByQghvazbKlvodV0V-0">
                    <mxGeometry x="5" y="70" width="10" height="160" as="geometry"/>
                </mxCell>
                <mxCell id="j-PByQghvazbKlvodV0V-23" value="" style="html=1;points=[];perimeter=orthogonalPerimeter;" vertex="1" parent="j-PByQghvazbKlvodV0V-0">
                    <mxGeometry x="5" y="250" width="10" height="220" as="geometry"/>
                </mxCell>
                <mxCell id="j-PByQghvazbKlvodV0V-2" value="Web Server" style="shape=umlLifeline;perimeter=lifelinePerimeter;whiteSpace=wrap;html=1;container=1;collapsible=0;recursiveResize=0;outlineConnect=0;" vertex="1" parent="XPOvYixQ1RFFN7VO0uJJ-1">
                    <mxGeometry x="200" y="80" width="100" height="510" as="geometry"/>
                </mxCell>
                <mxCell id="j-PByQghvazbKlvodV0V-3" value="" style="html=1;points=[];perimeter=orthogonalPerimeter;" vertex="1" parent="j-PByQghvazbKlvodV0V-2">
                    <mxGeometry x="45" y="70" width="10" height="160" as="geometry"/>
                </mxCell>
                <mxCell id="j-PByQghvazbKlvodV0V-24" value="" style="html=1;points=[];perimeter=orthogonalPerimeter;" vertex="1" parent="j-PByQghvazbKlvodV0V-2">
                    <mxGeometry x="45" y="250" width="10" height="220" as="geometry"/>
                </mxCell>
                <mxCell id="j-PByQghvazbKlvodV0V-4" value="Application Server" style="shape=umlLifeline;perimeter=lifelinePerimeter;whiteSpace=wrap;html=1;container=1;collapsible=0;recursiveResize=0;outlineConnect=0;" vertex="1" parent="XPOvYixQ1RFFN7VO0uJJ-1">
                    <mxGeometry x="360" y="80" width="100" height="510" as="geometry"/>
                </mxCell>
                <mxCell id="j-PByQghvazbKlvodV0V-5" value="" style="html=1;points=[];perimeter=orthogonalPerimeter;" vertex="1" parent="j-PByQghvazbKlvodV0V-4">
                    <mxGeometry x="44" y="70" width="10" height="160" as="geometry"/>
                </mxCell>
                <mxCell id="j-PByQghvazbKlvodV0V-25" value="" style="html=1;points=[];perimeter=orthogonalPerimeter;" vertex="1" parent="j-PByQghvazbKlvodV0V-4">
                    <mxGeometry x="45" y="250" width="10" height="220" as="geometry"/>
                </mxCell>
                <mxCell id="j-PByQghvazbKlvodV0V-6" value="Database Server" style="shape=umlLifeline;perimeter=lifelinePerimeter;whiteSpace=wrap;html=1;container=1;collapsible=0;recursiveResize=0;outlineConnect=0;" vertex="1" parent="XPOvYixQ1RFFN7VO0uJJ-1">
                    <mxGeometry x="570" y="80" width="100" height="510" as="geometry"/>
                </mxCell>
                <mxCell id="j-PByQghvazbKlvodV0V-7" value="" style="html=1;points=[];perimeter=orthogonalPerimeter;" vertex="1" parent="j-PByQghvazbKlvodV0V-6">
                    <mxGeometry x="45" y="70" width="10" height="160" as="geometry"/>
                </mxCell>
                <mxCell id="j-PByQghvazbKlvodV0V-26" value="" style="html=1;points=[];perimeter=orthogonalPerimeter;" vertex="1" parent="j-PByQghvazbKlvodV0V-6">
                    <mxGeometry x="45" y="250" width="10" height="220" as="geometry"/>
                </mxCell>
                <mxCell id="j-PByQghvazbKlvodV0V-8" value="Request to report a recipe&amp;nbsp;" style="edgeStyle=none;html=1;entryX=0.081;entryY=0.136;entryDx=0;entryDy=0;entryPerimeter=0;" edge="1" parent="XPOvYixQ1RFFN7VO0uJJ-1" source="j-PByQghvazbKlvodV0V-1" target="j-PByQghvazbKlvodV0V-3">
                    <mxGeometry relative="1" as="geometry"/>
                </mxCell>
                <mxCell id="j-PByQghvazbKlvodV0V-9" style="edgeStyle=none;html=1;" edge="1" parent="XPOvYixQ1RFFN7VO0uJJ-1" source="j-PByQghvazbKlvodV0V-3" target="j-PByQghvazbKlvodV0V-4">
                    <mxGeometry relative="1" as="geometry">
                        <Array as="points">
                            <mxPoint x="345" y="176"/>
                        </Array>
                    </mxGeometry>
                </mxCell>
                <mxCell id="j-PByQghvazbKlvodV0V-10" value="Forward request" style="edgeLabel;html=1;align=center;verticalAlign=middle;resizable=0;points=[];" vertex="1" connectable="0" parent="j-PByQghvazbKlvodV0V-9">
                    <mxGeometry x="0.0746" relative="1" as="geometry">
                        <mxPoint x="-13" y="-6" as="offset"/>
                    </mxGeometry>
                </mxCell>
                <mxCell id="j-PByQghvazbKlvodV0V-11" style="edgeStyle=none;html=1;entryX=-0.065;entryY=0.255;entryDx=0;entryDy=0;entryPerimeter=0;" edge="1" parent="XPOvYixQ1RFFN7VO0uJJ-1" source="j-PByQghvazbKlvodV0V-5" target="j-PByQghvazbKlvodV0V-7">
                    <mxGeometry relative="1" as="geometry">
                        <Array as="points">
                            <mxPoint x="510" y="190"/>
                        </Array>
                    </mxGeometry>
                </mxCell>
                <mxCell id="j-PByQghvazbKlvodV0V-12" value="Validate user creds" style="edgeLabel;html=1;align=center;verticalAlign=middle;resizable=0;points=[];" vertex="1" connectable="0" parent="j-PByQghvazbKlvodV0V-11">
                    <mxGeometry x="-0.1139" y="-2" relative="1" as="geometry">
                        <mxPoint y="-21" as="offset"/>
                    </mxGeometry>
                </mxCell>
                <mxCell id="j-PByQghvazbKlvodV0V-13" style="edgeStyle=none;html=1;fontSize=10;" edge="1" parent="XPOvYixQ1RFFN7VO0uJJ-1" source="j-PByQghvazbKlvodV0V-7" target="j-PByQghvazbKlvodV0V-5">
                    <mxGeometry relative="1" as="geometry">
                        <Array as="points">
                            <mxPoint x="520" y="200"/>
                        </Array>
                    </mxGeometry>
                </mxCell>
                <mxCell id="j-PByQghvazbKlvodV0V-14" value="Return user creds" style="edgeLabel;html=1;align=center;verticalAlign=middle;resizable=0;points=[];fontSize=10;" vertex="1" connectable="0" parent="j-PByQghvazbKlvodV0V-13">
                    <mxGeometry x="0.1369" y="3" relative="1" as="geometry">
                        <mxPoint x="7" as="offset"/>
                    </mxGeometry>
                </mxCell>
                <mxCell id="j-PByQghvazbKlvodV0V-15" style="edgeStyle=none;html=1;entryX=1.077;entryY=0.926;entryDx=0;entryDy=0;entryPerimeter=0;fontSize=10;" edge="1" parent="XPOvYixQ1RFFN7VO0uJJ-1" source="j-PByQghvazbKlvodV0V-3" target="j-PByQghvazbKlvodV0V-1">
                    <mxGeometry relative="1" as="geometry"/>
                </mxCell>
                <mxCell id="j-PByQghvazbKlvodV0V-16" value="Display report form&amp;nbsp;" style="edgeLabel;html=1;align=center;verticalAlign=middle;resizable=0;points=[];fontSize=10;" vertex="1" connectable="0" parent="j-PByQghvazbKlvodV0V-15">
                    <mxGeometry x="0.12" y="1" relative="1" as="geometry">
                        <mxPoint x="15" y="-9" as="offset"/>
                    </mxGeometry>
                </mxCell>
                <mxCell id="j-PByQghvazbKlvodV0V-21" style="edgeStyle=none;html=1;" edge="1" parent="XPOvYixQ1RFFN7VO0uJJ-1" source="j-PByQghvazbKlvodV0V-5" target="j-PByQghvazbKlvodV0V-2">
                    <mxGeometry relative="1" as="geometry">
                        <Array as="points">
                            <mxPoint x="330" y="270"/>
                        </Array>
                    </mxGeometry>
                </mxCell>
                <mxCell id="j-PByQghvazbKlvodV0V-22" value="Return user credentials" style="edgeLabel;html=1;align=center;verticalAlign=middle;resizable=0;points=[];" vertex="1" connectable="0" parent="j-PByQghvazbKlvodV0V-21">
                    <mxGeometry x="0.1018" y="-1" relative="1" as="geometry">
                        <mxPoint x="11" as="offset"/>
                    </mxGeometry>
                </mxCell>
                <mxCell id="j-PByQghvazbKlvodV0V-27" style="edgeStyle=none;html=1;" edge="1" parent="XPOvYixQ1RFFN7VO0uJJ-1" source="j-PByQghvazbKlvodV0V-23" target="j-PByQghvazbKlvodV0V-2">
                    <mxGeometry relative="1" as="geometry">
                        <Array as="points">
                            <mxPoint x="160" y="350"/>
                        </Array>
                    </mxGeometry>
                </mxCell>
                <mxCell id="j-PByQghvazbKlvodV0V-29" value="Submit Report" style="edgeLabel;html=1;align=center;verticalAlign=middle;resizable=0;points=[];" vertex="1" connectable="0" parent="j-PByQghvazbKlvodV0V-27">
                    <mxGeometry x="-0.0821" y="-3" relative="1" as="geometry">
                        <mxPoint as="offset"/>
                    </mxGeometry>
                </mxCell>
                <mxCell id="j-PByQghvazbKlvodV0V-30" style="edgeStyle=none;html=1;" edge="1" parent="XPOvYixQ1RFFN7VO0uJJ-1" source="j-PByQghvazbKlvodV0V-24" target="j-PByQghvazbKlvodV0V-4">
                    <mxGeometry relative="1" as="geometry">
                        <Array as="points">
                            <mxPoint x="330" y="370"/>
                        </Array>
                    </mxGeometry>
                </mxCell>
                <mxCell id="j-PByQghvazbKlvodV0V-32" value="Forward report submission" style="edgeLabel;html=1;align=center;verticalAlign=middle;resizable=0;points=[];" vertex="1" connectable="0" parent="j-PByQghvazbKlvodV0V-30">
                    <mxGeometry x="-0.2098" y="1" relative="1" as="geometry">
                        <mxPoint x="14" as="offset"/>
                    </mxGeometry>
                </mxCell>
                <mxCell id="6TlwbNuUKb3C_sJk7HfG-0" style="edgeStyle=none;html=1;" edge="1" parent="XPOvYixQ1RFFN7VO0uJJ-1" source="j-PByQghvazbKlvodV0V-24" target="j-PByQghvazbKlvodV0V-4">
                    <mxGeometry relative="1" as="geometry">
                        <Array as="points">
                            <mxPoint x="330" y="410"/>
                        </Array>
                    </mxGeometry>
                </mxCell>
                <mxCell id="6TlwbNuUKb3C_sJk7HfG-1" value="Validate form details" style="edgeLabel;html=1;align=center;verticalAlign=middle;resizable=0;points=[];" vertex="1" connectable="0" parent="6TlwbNuUKb3C_sJk7HfG-0">
                    <mxGeometry x="-0.2103" y="2" relative="1" as="geometry">
                        <mxPoint x="14" as="offset"/>
                    </mxGeometry>
                </mxCell>
                <mxCell id="6TlwbNuUKb3C_sJk7HfG-2" style="edgeStyle=none;html=1;" edge="1" parent="XPOvYixQ1RFFN7VO0uJJ-1" source="j-PByQghvazbKlvodV0V-25" target="j-PByQghvazbKlvodV0V-2">
                    <mxGeometry relative="1" as="geometry"/>
                </mxCell>
                <mxCell id="6TlwbNuUKb3C_sJk7HfG-3" value="Return form validation" style="edgeLabel;html=1;align=center;verticalAlign=middle;resizable=0;points=[];" vertex="1" connectable="0" parent="6TlwbNuUKb3C_sJk7HfG-2">
                    <mxGeometry x="0.1265" y="1" relative="1" as="geometry">
                        <mxPoint x="13" y="-1" as="offset"/>
                    </mxGeometry>
                </mxCell>
                <mxCell id="6TlwbNuUKb3C_sJk7HfG-4" style="edgeStyle=none;html=1;" edge="1" parent="XPOvYixQ1RFFN7VO0uJJ-1" source="j-PByQghvazbKlvodV0V-24" target="j-PByQghvazbKlvodV0V-4">
                    <mxGeometry relative="1" as="geometry">
                        <Array as="points">
                            <mxPoint x="330" y="470"/>
                        </Array>
                    </mxGeometry>
                </mxCell>
                <mxCell id="6TlwbNuUKb3C_sJk7HfG-5" value="Submit form" style="edgeLabel;html=1;align=center;verticalAlign=middle;resizable=0;points=[];" vertex="1" connectable="0" parent="6TlwbNuUKb3C_sJk7HfG-4">
                    <mxGeometry x="-0.2103" y="2" relative="1" as="geometry">
                        <mxPoint x="14" as="offset"/>
                    </mxGeometry>
                </mxCell>
                <mxCell id="6TlwbNuUKb3C_sJk7HfG-6" style="edgeStyle=none;html=1;" edge="1" parent="XPOvYixQ1RFFN7VO0uJJ-1" source="j-PByQghvazbKlvodV0V-25" target="j-PByQghvazbKlvodV0V-6">
                    <mxGeometry relative="1" as="geometry">
                        <Array as="points">
                            <mxPoint x="520" y="490"/>
                        </Array>
                    </mxGeometry>
                </mxCell>
                <mxCell id="6TlwbNuUKb3C_sJk7HfG-7" value="Store report in database" style="edgeLabel;html=1;align=center;verticalAlign=middle;resizable=0;points=[];" vertex="1" connectable="0" parent="6TlwbNuUKb3C_sJk7HfG-6">
                    <mxGeometry x="-0.1175" y="3" relative="1" as="geometry">
                        <mxPoint as="offset"/>
                    </mxGeometry>
                </mxCell>
                <mxCell id="6TlwbNuUKb3C_sJk7HfG-8" style="edgeStyle=none;html=1;" edge="1" parent="XPOvYixQ1RFFN7VO0uJJ-1" source="j-PByQghvazbKlvodV0V-26" target="j-PByQghvazbKlvodV0V-4">
                    <mxGeometry relative="1" as="geometry">
                        <Array as="points">
                            <mxPoint x="510" y="520"/>
                        </Array>
                    </mxGeometry>
                </mxCell>
                <mxCell id="6TlwbNuUKb3C_sJk7HfG-9" value="Return result" style="edgeLabel;html=1;align=center;verticalAlign=middle;resizable=0;points=[];" vertex="1" connectable="0" parent="6TlwbNuUKb3C_sJk7HfG-8">
                    <mxGeometry x="0.1744" y="-1" relative="1" as="geometry">
                        <mxPoint as="offset"/>
                    </mxGeometry>
                </mxCell>
                <mxCell id="6TlwbNuUKb3C_sJk7HfG-10" style="edgeStyle=none;html=1;" edge="1" parent="XPOvYixQ1RFFN7VO0uJJ-1" source="j-PByQghvazbKlvodV0V-25" target="j-PByQghvazbKlvodV0V-2">
                    <mxGeometry relative="1" as="geometry">
                        <Array as="points">
                            <mxPoint x="320" y="530"/>
                        </Array>
                    </mxGeometry>
                </mxCell>
                <mxCell id="6TlwbNuUKb3C_sJk7HfG-11" value="Return result" style="edgeLabel;html=1;align=center;verticalAlign=middle;resizable=0;points=[];" vertex="1" connectable="0" parent="6TlwbNuUKb3C_sJk7HfG-10">
                    <mxGeometry x="0.295" y="1" relative="1" as="geometry">
                        <mxPoint x="26" as="offset"/>
                    </mxGeometry>
                </mxCell>
                <mxCell id="6TlwbNuUKb3C_sJk7HfG-12" style="edgeStyle=none;html=1;" edge="1" parent="XPOvYixQ1RFFN7VO0uJJ-1" source="j-PByQghvazbKlvodV0V-24" target="j-PByQghvazbKlvodV0V-0">
                    <mxGeometry relative="1" as="geometry">
                        <Array as="points">
                            <mxPoint x="150" y="540"/>
                        </Array>
                    </mxGeometry>
                </mxCell>
                <mxCell id="6TlwbNuUKb3C_sJk7HfG-13" value="Display success message" style="edgeLabel;html=1;align=center;verticalAlign=middle;resizable=0;points=[];" vertex="1" connectable="0" parent="6TlwbNuUKb3C_sJk7HfG-12">
                    <mxGeometry x="0.268" y="-2" relative="1" as="geometry">
                        <mxPoint x="23" as="offset"/>
                    </mxGeometry>
                </mxCell>
            </root>
        </mxGraphModel>
    </diagram>
    <diagram id="USB8UCvwg16Z38svJkGA" name="Report User">
        <mxGraphModel dx="921" dy="556" grid="1" gridSize="10" guides="1" tooltips="1" connect="1" arrows="1" fold="1" page="1" pageScale="1" pageWidth="827" pageHeight="1169" math="0" shadow="0">
            <root>
                <mxCell id="bInsI68fEZpEN1L3uqPc-0"/>
                <mxCell id="bInsI68fEZpEN1L3uqPc-1" parent="bInsI68fEZpEN1L3uqPc-0"/>
                <mxCell id="bInsI68fEZpEN1L3uqPc-2" value="" style="shape=umlLifeline;participant=umlActor;perimeter=lifelinePerimeter;whiteSpace=wrap;html=1;container=1;collapsible=0;recursiveResize=0;verticalAlign=top;spacingTop=36;outlineConnect=0;" vertex="1" parent="bInsI68fEZpEN1L3uqPc-1">
                    <mxGeometry x="50" y="80" width="20" height="510" as="geometry"/>
                </mxCell>
                <mxCell id="bInsI68fEZpEN1L3uqPc-3" value="" style="html=1;points=[];perimeter=orthogonalPerimeter;" vertex="1" parent="bInsI68fEZpEN1L3uqPc-2">
                    <mxGeometry x="5" y="70" width="10" height="160" as="geometry"/>
                </mxCell>
                <mxCell id="bInsI68fEZpEN1L3uqPc-4" value="" style="html=1;points=[];perimeter=orthogonalPerimeter;" vertex="1" parent="bInsI68fEZpEN1L3uqPc-2">
                    <mxGeometry x="5" y="250" width="10" height="220" as="geometry"/>
                </mxCell>
                <mxCell id="bInsI68fEZpEN1L3uqPc-5" value="Web Server" style="shape=umlLifeline;perimeter=lifelinePerimeter;whiteSpace=wrap;html=1;container=1;collapsible=0;recursiveResize=0;outlineConnect=0;" vertex="1" parent="bInsI68fEZpEN1L3uqPc-1">
                    <mxGeometry x="200" y="80" width="100" height="510" as="geometry"/>
                </mxCell>
                <mxCell id="bInsI68fEZpEN1L3uqPc-6" value="" style="html=1;points=[];perimeter=orthogonalPerimeter;" vertex="1" parent="bInsI68fEZpEN1L3uqPc-5">
                    <mxGeometry x="45" y="70" width="10" height="160" as="geometry"/>
                </mxCell>
                <mxCell id="bInsI68fEZpEN1L3uqPc-7" value="" style="html=1;points=[];perimeter=orthogonalPerimeter;" vertex="1" parent="bInsI68fEZpEN1L3uqPc-5">
                    <mxGeometry x="45" y="250" width="10" height="220" as="geometry"/>
                </mxCell>
                <mxCell id="bInsI68fEZpEN1L3uqPc-8" value="Application Server" style="shape=umlLifeline;perimeter=lifelinePerimeter;whiteSpace=wrap;html=1;container=1;collapsible=0;recursiveResize=0;outlineConnect=0;" vertex="1" parent="bInsI68fEZpEN1L3uqPc-1">
                    <mxGeometry x="360" y="80" width="100" height="510" as="geometry"/>
                </mxCell>
                <mxCell id="bInsI68fEZpEN1L3uqPc-9" value="" style="html=1;points=[];perimeter=orthogonalPerimeter;" vertex="1" parent="bInsI68fEZpEN1L3uqPc-8">
                    <mxGeometry x="44" y="70" width="10" height="160" as="geometry"/>
                </mxCell>
                <mxCell id="bInsI68fEZpEN1L3uqPc-10" value="" style="html=1;points=[];perimeter=orthogonalPerimeter;" vertex="1" parent="bInsI68fEZpEN1L3uqPc-8">
                    <mxGeometry x="45" y="250" width="10" height="220" as="geometry"/>
                </mxCell>
                <mxCell id="bInsI68fEZpEN1L3uqPc-11" value="Database Server" style="shape=umlLifeline;perimeter=lifelinePerimeter;whiteSpace=wrap;html=1;container=1;collapsible=0;recursiveResize=0;outlineConnect=0;" vertex="1" parent="bInsI68fEZpEN1L3uqPc-1">
                    <mxGeometry x="570" y="80" width="100" height="510" as="geometry"/>
                </mxCell>
                <mxCell id="bInsI68fEZpEN1L3uqPc-12" value="" style="html=1;points=[];perimeter=orthogonalPerimeter;" vertex="1" parent="bInsI68fEZpEN1L3uqPc-11">
                    <mxGeometry x="45" y="70" width="10" height="160" as="geometry"/>
                </mxCell>
                <mxCell id="bInsI68fEZpEN1L3uqPc-13" value="" style="html=1;points=[];perimeter=orthogonalPerimeter;" vertex="1" parent="bInsI68fEZpEN1L3uqPc-11">
                    <mxGeometry x="45" y="250" width="10" height="220" as="geometry"/>
                </mxCell>
                <mxCell id="bInsI68fEZpEN1L3uqPc-14" value="Request to report a user" style="edgeStyle=none;html=1;entryX=0.081;entryY=0.136;entryDx=0;entryDy=0;entryPerimeter=0;" edge="1" parent="bInsI68fEZpEN1L3uqPc-1" source="bInsI68fEZpEN1L3uqPc-3" target="bInsI68fEZpEN1L3uqPc-6">
                    <mxGeometry relative="1" as="geometry"/>
                </mxCell>
                <mxCell id="bInsI68fEZpEN1L3uqPc-15" style="edgeStyle=none;html=1;" edge="1" parent="bInsI68fEZpEN1L3uqPc-1" source="bInsI68fEZpEN1L3uqPc-6" target="bInsI68fEZpEN1L3uqPc-8">
                    <mxGeometry relative="1" as="geometry">
                        <Array as="points">
                            <mxPoint x="345" y="176"/>
                        </Array>
                    </mxGeometry>
                </mxCell>
                <mxCell id="bInsI68fEZpEN1L3uqPc-16" value="Forward request" style="edgeLabel;html=1;align=center;verticalAlign=middle;resizable=0;points=[];" vertex="1" connectable="0" parent="bInsI68fEZpEN1L3uqPc-15">
                    <mxGeometry x="0.0746" relative="1" as="geometry">
                        <mxPoint x="-13" y="-6" as="offset"/>
                    </mxGeometry>
                </mxCell>
                <mxCell id="bInsI68fEZpEN1L3uqPc-17" style="edgeStyle=none;html=1;entryX=-0.065;entryY=0.255;entryDx=0;entryDy=0;entryPerimeter=0;" edge="1" parent="bInsI68fEZpEN1L3uqPc-1" source="bInsI68fEZpEN1L3uqPc-9" target="bInsI68fEZpEN1L3uqPc-12">
                    <mxGeometry relative="1" as="geometry">
                        <Array as="points">
                            <mxPoint x="510" y="190"/>
                        </Array>
                    </mxGeometry>
                </mxCell>
                <mxCell id="bInsI68fEZpEN1L3uqPc-18" value="Validate user creds" style="edgeLabel;html=1;align=center;verticalAlign=middle;resizable=0;points=[];" vertex="1" connectable="0" parent="bInsI68fEZpEN1L3uqPc-17">
                    <mxGeometry x="-0.1139" y="-2" relative="1" as="geometry">
                        <mxPoint y="-21" as="offset"/>
                    </mxGeometry>
                </mxCell>
                <mxCell id="bInsI68fEZpEN1L3uqPc-19" style="edgeStyle=none;html=1;fontSize=10;" edge="1" parent="bInsI68fEZpEN1L3uqPc-1" source="bInsI68fEZpEN1L3uqPc-12" target="bInsI68fEZpEN1L3uqPc-9">
                    <mxGeometry relative="1" as="geometry">
                        <Array as="points">
                            <mxPoint x="520" y="200"/>
                        </Array>
                    </mxGeometry>
                </mxCell>
                <mxCell id="bInsI68fEZpEN1L3uqPc-20" value="Return user creds" style="edgeLabel;html=1;align=center;verticalAlign=middle;resizable=0;points=[];fontSize=10;" vertex="1" connectable="0" parent="bInsI68fEZpEN1L3uqPc-19">
                    <mxGeometry x="0.1369" y="3" relative="1" as="geometry">
                        <mxPoint x="7" y="7" as="offset"/>
                    </mxGeometry>
                </mxCell>
                <mxCell id="bInsI68fEZpEN1L3uqPc-21" style="edgeStyle=none;html=1;entryX=1.077;entryY=0.926;entryDx=0;entryDy=0;entryPerimeter=0;fontSize=10;" edge="1" parent="bInsI68fEZpEN1L3uqPc-1" source="bInsI68fEZpEN1L3uqPc-6" target="bInsI68fEZpEN1L3uqPc-3">
                    <mxGeometry relative="1" as="geometry"/>
                </mxCell>
                <mxCell id="bInsI68fEZpEN1L3uqPc-22" value="Display report user form&amp;nbsp;" style="edgeLabel;html=1;align=center;verticalAlign=middle;resizable=0;points=[];fontSize=10;" vertex="1" connectable="0" parent="bInsI68fEZpEN1L3uqPc-21">
                    <mxGeometry x="0.12" y="1" relative="1" as="geometry">
                        <mxPoint x="15" y="-9" as="offset"/>
                    </mxGeometry>
                </mxCell>
                <mxCell id="bInsI68fEZpEN1L3uqPc-23" style="edgeStyle=none;html=1;" edge="1" parent="bInsI68fEZpEN1L3uqPc-1" source="bInsI68fEZpEN1L3uqPc-9" target="bInsI68fEZpEN1L3uqPc-5">
                    <mxGeometry relative="1" as="geometry">
                        <Array as="points">
                            <mxPoint x="330" y="270"/>
                        </Array>
                    </mxGeometry>
                </mxCell>
                <mxCell id="bInsI68fEZpEN1L3uqPc-24" value="Return user credentials" style="edgeLabel;html=1;align=center;verticalAlign=middle;resizable=0;points=[];" vertex="1" connectable="0" parent="bInsI68fEZpEN1L3uqPc-23">
                    <mxGeometry x="0.1018" y="-1" relative="1" as="geometry">
                        <mxPoint x="11" as="offset"/>
                    </mxGeometry>
                </mxCell>
                <mxCell id="bInsI68fEZpEN1L3uqPc-25" style="edgeStyle=none;html=1;" edge="1" parent="bInsI68fEZpEN1L3uqPc-1" source="bInsI68fEZpEN1L3uqPc-4" target="bInsI68fEZpEN1L3uqPc-5">
                    <mxGeometry relative="1" as="geometry">
                        <Array as="points">
                            <mxPoint x="160" y="350"/>
                        </Array>
                    </mxGeometry>
                </mxCell>
                <mxCell id="bInsI68fEZpEN1L3uqPc-26" value="Submit Report" style="edgeLabel;html=1;align=center;verticalAlign=middle;resizable=0;points=[];" vertex="1" connectable="0" parent="bInsI68fEZpEN1L3uqPc-25">
                    <mxGeometry x="-0.0821" y="-3" relative="1" as="geometry">
                        <mxPoint as="offset"/>
                    </mxGeometry>
                </mxCell>
                <mxCell id="bInsI68fEZpEN1L3uqPc-27" style="edgeStyle=none;html=1;" edge="1" parent="bInsI68fEZpEN1L3uqPc-1" source="bInsI68fEZpEN1L3uqPc-7" target="bInsI68fEZpEN1L3uqPc-8">
                    <mxGeometry relative="1" as="geometry">
                        <Array as="points">
                            <mxPoint x="330" y="370"/>
                        </Array>
                    </mxGeometry>
                </mxCell>
                <mxCell id="bInsI68fEZpEN1L3uqPc-28" value="Forward report submission" style="edgeLabel;html=1;align=center;verticalAlign=middle;resizable=0;points=[];" vertex="1" connectable="0" parent="bInsI68fEZpEN1L3uqPc-27">
                    <mxGeometry x="-0.2098" y="1" relative="1" as="geometry">
                        <mxPoint x="14" as="offset"/>
                    </mxGeometry>
                </mxCell>
                <mxCell id="bInsI68fEZpEN1L3uqPc-29" style="edgeStyle=none;html=1;" edge="1" parent="bInsI68fEZpEN1L3uqPc-1" source="bInsI68fEZpEN1L3uqPc-7" target="bInsI68fEZpEN1L3uqPc-8">
                    <mxGeometry relative="1" as="geometry">
                        <Array as="points">
                            <mxPoint x="330" y="410"/>
                        </Array>
                    </mxGeometry>
                </mxCell>
                <mxCell id="bInsI68fEZpEN1L3uqPc-30" value="Validate form details" style="edgeLabel;html=1;align=center;verticalAlign=middle;resizable=0;points=[];" vertex="1" connectable="0" parent="bInsI68fEZpEN1L3uqPc-29">
                    <mxGeometry x="-0.2103" y="2" relative="1" as="geometry">
                        <mxPoint x="14" as="offset"/>
                    </mxGeometry>
                </mxCell>
                <mxCell id="bInsI68fEZpEN1L3uqPc-31" style="edgeStyle=none;html=1;" edge="1" parent="bInsI68fEZpEN1L3uqPc-1" source="bInsI68fEZpEN1L3uqPc-10" target="bInsI68fEZpEN1L3uqPc-5">
                    <mxGeometry relative="1" as="geometry"/>
                </mxCell>
                <mxCell id="bInsI68fEZpEN1L3uqPc-32" value="Return form validation" style="edgeLabel;html=1;align=center;verticalAlign=middle;resizable=0;points=[];" vertex="1" connectable="0" parent="bInsI68fEZpEN1L3uqPc-31">
                    <mxGeometry x="0.1265" y="1" relative="1" as="geometry">
                        <mxPoint x="13" y="-1" as="offset"/>
                    </mxGeometry>
                </mxCell>
                <mxCell id="bInsI68fEZpEN1L3uqPc-33" style="edgeStyle=none;html=1;" edge="1" parent="bInsI68fEZpEN1L3uqPc-1" source="bInsI68fEZpEN1L3uqPc-7" target="bInsI68fEZpEN1L3uqPc-8">
                    <mxGeometry relative="1" as="geometry">
                        <Array as="points">
                            <mxPoint x="330" y="470"/>
                        </Array>
                    </mxGeometry>
                </mxCell>
                <mxCell id="bInsI68fEZpEN1L3uqPc-34" value="Submit form" style="edgeLabel;html=1;align=center;verticalAlign=middle;resizable=0;points=[];" vertex="1" connectable="0" parent="bInsI68fEZpEN1L3uqPc-33">
                    <mxGeometry x="-0.2103" y="2" relative="1" as="geometry">
                        <mxPoint x="14" as="offset"/>
                    </mxGeometry>
                </mxCell>
                <mxCell id="bInsI68fEZpEN1L3uqPc-35" style="edgeStyle=none;html=1;" edge="1" parent="bInsI68fEZpEN1L3uqPc-1" source="bInsI68fEZpEN1L3uqPc-10" target="bInsI68fEZpEN1L3uqPc-11">
                    <mxGeometry relative="1" as="geometry">
                        <Array as="points">
                            <mxPoint x="520" y="490"/>
                        </Array>
                    </mxGeometry>
                </mxCell>
                <mxCell id="bInsI68fEZpEN1L3uqPc-36" value="Store report in database" style="edgeLabel;html=1;align=center;verticalAlign=middle;resizable=0;points=[];" vertex="1" connectable="0" parent="bInsI68fEZpEN1L3uqPc-35">
                    <mxGeometry x="-0.1175" y="3" relative="1" as="geometry">
                        <mxPoint as="offset"/>
                    </mxGeometry>
                </mxCell>
                <mxCell id="bInsI68fEZpEN1L3uqPc-37" style="edgeStyle=none;html=1;" edge="1" parent="bInsI68fEZpEN1L3uqPc-1" source="bInsI68fEZpEN1L3uqPc-13" target="bInsI68fEZpEN1L3uqPc-8">
                    <mxGeometry relative="1" as="geometry">
                        <Array as="points">
                            <mxPoint x="510" y="520"/>
                        </Array>
                    </mxGeometry>
                </mxCell>
                <mxCell id="bInsI68fEZpEN1L3uqPc-38" value="Return result" style="edgeLabel;html=1;align=center;verticalAlign=middle;resizable=0;points=[];" vertex="1" connectable="0" parent="bInsI68fEZpEN1L3uqPc-37">
                    <mxGeometry x="0.1744" y="-1" relative="1" as="geometry">
                        <mxPoint as="offset"/>
                    </mxGeometry>
                </mxCell>
                <mxCell id="bInsI68fEZpEN1L3uqPc-39" style="edgeStyle=none;html=1;" edge="1" parent="bInsI68fEZpEN1L3uqPc-1" source="bInsI68fEZpEN1L3uqPc-10" target="bInsI68fEZpEN1L3uqPc-5">
                    <mxGeometry relative="1" as="geometry">
                        <Array as="points">
                            <mxPoint x="320" y="530"/>
                        </Array>
                    </mxGeometry>
                </mxCell>
                <mxCell id="bInsI68fEZpEN1L3uqPc-40" value="Return result" style="edgeLabel;html=1;align=center;verticalAlign=middle;resizable=0;points=[];" vertex="1" connectable="0" parent="bInsI68fEZpEN1L3uqPc-39">
                    <mxGeometry x="0.295" y="1" relative="1" as="geometry">
                        <mxPoint x="26" as="offset"/>
                    </mxGeometry>
                </mxCell>
                <mxCell id="bInsI68fEZpEN1L3uqPc-41" style="edgeStyle=none;html=1;" edge="1" parent="bInsI68fEZpEN1L3uqPc-1" source="bInsI68fEZpEN1L3uqPc-7" target="bInsI68fEZpEN1L3uqPc-2">
                    <mxGeometry relative="1" as="geometry">
                        <Array as="points">
                            <mxPoint x="150" y="540"/>
                        </Array>
                    </mxGeometry>
                </mxCell>
                <mxCell id="bInsI68fEZpEN1L3uqPc-42" value="Display success message" style="edgeLabel;html=1;align=center;verticalAlign=middle;resizable=0;points=[];" vertex="1" connectable="0" parent="bInsI68fEZpEN1L3uqPc-41">
                    <mxGeometry x="0.268" y="-2" relative="1" as="geometry">
                        <mxPoint x="23" as="offset"/>
                    </mxGeometry>
                </mxCell>
            </root>
        </mxGraphModel>
    </diagram>
    <diagram id="CWgSIVj4tEOL0pl_6g3Y" name="Make an appeal">
        <mxGraphModel dx="921" dy="556" grid="1" gridSize="10" guides="1" tooltips="1" connect="1" arrows="1" fold="1" page="1" pageScale="1" pageWidth="827" pageHeight="1169" math="0" shadow="0">
            <root>
                <mxCell id="vh6OCvirTypBTCZl_1IV-0"/>
                <mxCell id="vh6OCvirTypBTCZl_1IV-1" parent="vh6OCvirTypBTCZl_1IV-0"/>
                <mxCell id="RWDQ6ZaET_zc5o9FDmuG-0" value="" style="shape=umlLifeline;participant=umlActor;perimeter=lifelinePerimeter;whiteSpace=wrap;html=1;container=1;collapsible=0;recursiveResize=0;verticalAlign=top;spacingTop=36;outlineConnect=0;" vertex="1" parent="vh6OCvirTypBTCZl_1IV-1">
                    <mxGeometry x="50" y="80" width="20" height="510" as="geometry"/>
                </mxCell>
                <mxCell id="RWDQ6ZaET_zc5o9FDmuG-1" value="" style="html=1;points=[];perimeter=orthogonalPerimeter;" vertex="1" parent="RWDQ6ZaET_zc5o9FDmuG-0">
                    <mxGeometry x="5" y="70" width="10" height="160" as="geometry"/>
                </mxCell>
                <mxCell id="RWDQ6ZaET_zc5o9FDmuG-2" value="" style="html=1;points=[];perimeter=orthogonalPerimeter;" vertex="1" parent="RWDQ6ZaET_zc5o9FDmuG-0">
                    <mxGeometry x="5" y="250" width="10" height="220" as="geometry"/>
                </mxCell>
                <mxCell id="RWDQ6ZaET_zc5o9FDmuG-3" value="Web Server" style="shape=umlLifeline;perimeter=lifelinePerimeter;whiteSpace=wrap;html=1;container=1;collapsible=0;recursiveResize=0;outlineConnect=0;" vertex="1" parent="vh6OCvirTypBTCZl_1IV-1">
                    <mxGeometry x="200" y="80" width="100" height="510" as="geometry"/>
                </mxCell>
                <mxCell id="RWDQ6ZaET_zc5o9FDmuG-4" value="" style="html=1;points=[];perimeter=orthogonalPerimeter;" vertex="1" parent="RWDQ6ZaET_zc5o9FDmuG-3">
                    <mxGeometry x="45" y="70" width="10" height="160" as="geometry"/>
                </mxCell>
                <mxCell id="RWDQ6ZaET_zc5o9FDmuG-5" value="" style="html=1;points=[];perimeter=orthogonalPerimeter;" vertex="1" parent="RWDQ6ZaET_zc5o9FDmuG-3">
                    <mxGeometry x="45" y="250" width="10" height="220" as="geometry"/>
                </mxCell>
                <mxCell id="RWDQ6ZaET_zc5o9FDmuG-6" value="Application Server" style="shape=umlLifeline;perimeter=lifelinePerimeter;whiteSpace=wrap;html=1;container=1;collapsible=0;recursiveResize=0;outlineConnect=0;" vertex="1" parent="vh6OCvirTypBTCZl_1IV-1">
                    <mxGeometry x="360" y="80" width="100" height="510" as="geometry"/>
                </mxCell>
                <mxCell id="RWDQ6ZaET_zc5o9FDmuG-7" value="" style="html=1;points=[];perimeter=orthogonalPerimeter;" vertex="1" parent="RWDQ6ZaET_zc5o9FDmuG-6">
                    <mxGeometry x="44" y="70" width="10" height="160" as="geometry"/>
                </mxCell>
                <mxCell id="RWDQ6ZaET_zc5o9FDmuG-8" value="" style="html=1;points=[];perimeter=orthogonalPerimeter;" vertex="1" parent="RWDQ6ZaET_zc5o9FDmuG-6">
                    <mxGeometry x="45" y="250" width="10" height="220" as="geometry"/>
                </mxCell>
                <mxCell id="RWDQ6ZaET_zc5o9FDmuG-9" value="Database Server" style="shape=umlLifeline;perimeter=lifelinePerimeter;whiteSpace=wrap;html=1;container=1;collapsible=0;recursiveResize=0;outlineConnect=0;" vertex="1" parent="vh6OCvirTypBTCZl_1IV-1">
                    <mxGeometry x="570" y="80" width="100" height="510" as="geometry"/>
                </mxCell>
                <mxCell id="RWDQ6ZaET_zc5o9FDmuG-10" value="" style="html=1;points=[];perimeter=orthogonalPerimeter;" vertex="1" parent="RWDQ6ZaET_zc5o9FDmuG-9">
                    <mxGeometry x="45" y="70" width="10" height="160" as="geometry"/>
                </mxCell>
                <mxCell id="RWDQ6ZaET_zc5o9FDmuG-11" value="" style="html=1;points=[];perimeter=orthogonalPerimeter;" vertex="1" parent="RWDQ6ZaET_zc5o9FDmuG-9">
                    <mxGeometry x="45" y="250" width="10" height="220" as="geometry"/>
                </mxCell>
                <mxCell id="RWDQ6ZaET_zc5o9FDmuG-12" value="Request to make an appeal" style="edgeStyle=none;html=1;entryX=0.081;entryY=0.136;entryDx=0;entryDy=0;entryPerimeter=0;" edge="1" parent="vh6OCvirTypBTCZl_1IV-1" source="RWDQ6ZaET_zc5o9FDmuG-1" target="RWDQ6ZaET_zc5o9FDmuG-4">
                    <mxGeometry relative="1" as="geometry"/>
                </mxCell>
                <mxCell id="RWDQ6ZaET_zc5o9FDmuG-13" style="edgeStyle=none;html=1;" edge="1" parent="vh6OCvirTypBTCZl_1IV-1" source="RWDQ6ZaET_zc5o9FDmuG-4" target="RWDQ6ZaET_zc5o9FDmuG-6">
                    <mxGeometry relative="1" as="geometry">
                        <Array as="points">
                            <mxPoint x="345" y="176"/>
                        </Array>
                    </mxGeometry>
                </mxCell>
                <mxCell id="RWDQ6ZaET_zc5o9FDmuG-14" value="Forward request" style="edgeLabel;html=1;align=center;verticalAlign=middle;resizable=0;points=[];" vertex="1" connectable="0" parent="RWDQ6ZaET_zc5o9FDmuG-13">
                    <mxGeometry x="0.0746" relative="1" as="geometry">
                        <mxPoint x="-13" y="-6" as="offset"/>
                    </mxGeometry>
                </mxCell>
                <mxCell id="RWDQ6ZaET_zc5o9FDmuG-15" style="edgeStyle=none;html=1;entryX=-0.065;entryY=0.255;entryDx=0;entryDy=0;entryPerimeter=0;" edge="1" parent="vh6OCvirTypBTCZl_1IV-1" source="RWDQ6ZaET_zc5o9FDmuG-7" target="RWDQ6ZaET_zc5o9FDmuG-10">
                    <mxGeometry relative="1" as="geometry">
                        <Array as="points">
                            <mxPoint x="510" y="190"/>
                        </Array>
                    </mxGeometry>
                </mxCell>
                <mxCell id="RWDQ6ZaET_zc5o9FDmuG-16" value="Validate user creds" style="edgeLabel;html=1;align=center;verticalAlign=middle;resizable=0;points=[];" vertex="1" connectable="0" parent="RWDQ6ZaET_zc5o9FDmuG-15">
                    <mxGeometry x="-0.1139" y="-2" relative="1" as="geometry">
                        <mxPoint y="-21" as="offset"/>
                    </mxGeometry>
                </mxCell>
                <mxCell id="RWDQ6ZaET_zc5o9FDmuG-17" style="edgeStyle=none;html=1;fontSize=10;" edge="1" parent="vh6OCvirTypBTCZl_1IV-1" source="RWDQ6ZaET_zc5o9FDmuG-10" target="RWDQ6ZaET_zc5o9FDmuG-7">
                    <mxGeometry relative="1" as="geometry">
                        <Array as="points">
                            <mxPoint x="520" y="200"/>
                        </Array>
                    </mxGeometry>
                </mxCell>
                <mxCell id="RWDQ6ZaET_zc5o9FDmuG-18" value="Return user creds" style="edgeLabel;html=1;align=center;verticalAlign=middle;resizable=0;points=[];fontSize=10;" vertex="1" connectable="0" parent="RWDQ6ZaET_zc5o9FDmuG-17">
                    <mxGeometry x="0.1369" y="3" relative="1" as="geometry">
                        <mxPoint x="7" y="7" as="offset"/>
                    </mxGeometry>
                </mxCell>
                <mxCell id="RWDQ6ZaET_zc5o9FDmuG-19" style="edgeStyle=none;html=1;entryX=1.077;entryY=0.926;entryDx=0;entryDy=0;entryPerimeter=0;fontSize=10;" edge="1" parent="vh6OCvirTypBTCZl_1IV-1" source="RWDQ6ZaET_zc5o9FDmuG-4" target="RWDQ6ZaET_zc5o9FDmuG-1">
                    <mxGeometry relative="1" as="geometry"/>
                </mxCell>
                <mxCell id="RWDQ6ZaET_zc5o9FDmuG-20" value="Display appeal form" style="edgeLabel;html=1;align=center;verticalAlign=middle;resizable=0;points=[];fontSize=10;" vertex="1" connectable="0" parent="RWDQ6ZaET_zc5o9FDmuG-19">
                    <mxGeometry x="0.12" y="1" relative="1" as="geometry">
                        <mxPoint x="15" y="-9" as="offset"/>
                    </mxGeometry>
                </mxCell>
                <mxCell id="RWDQ6ZaET_zc5o9FDmuG-21" style="edgeStyle=none;html=1;" edge="1" parent="vh6OCvirTypBTCZl_1IV-1" source="RWDQ6ZaET_zc5o9FDmuG-7" target="RWDQ6ZaET_zc5o9FDmuG-3">
                    <mxGeometry relative="1" as="geometry">
                        <Array as="points">
                            <mxPoint x="330" y="270"/>
                        </Array>
                    </mxGeometry>
                </mxCell>
                <mxCell id="RWDQ6ZaET_zc5o9FDmuG-22" value="Return user credentials" style="edgeLabel;html=1;align=center;verticalAlign=middle;resizable=0;points=[];" vertex="1" connectable="0" parent="RWDQ6ZaET_zc5o9FDmuG-21">
                    <mxGeometry x="0.1018" y="-1" relative="1" as="geometry">
                        <mxPoint x="11" as="offset"/>
                    </mxGeometry>
                </mxCell>
                <mxCell id="RWDQ6ZaET_zc5o9FDmuG-23" style="edgeStyle=none;html=1;" edge="1" parent="vh6OCvirTypBTCZl_1IV-1" source="RWDQ6ZaET_zc5o9FDmuG-2" target="RWDQ6ZaET_zc5o9FDmuG-3">
                    <mxGeometry relative="1" as="geometry">
                        <Array as="points">
                            <mxPoint x="160" y="350"/>
                        </Array>
                    </mxGeometry>
                </mxCell>
                <mxCell id="RWDQ6ZaET_zc5o9FDmuG-24" value="Submit appeal" style="edgeLabel;html=1;align=center;verticalAlign=middle;resizable=0;points=[];" vertex="1" connectable="0" parent="RWDQ6ZaET_zc5o9FDmuG-23">
                    <mxGeometry x="-0.0821" y="-3" relative="1" as="geometry">
                        <mxPoint as="offset"/>
                    </mxGeometry>
                </mxCell>
                <mxCell id="RWDQ6ZaET_zc5o9FDmuG-25" style="edgeStyle=none;html=1;" edge="1" parent="vh6OCvirTypBTCZl_1IV-1" source="RWDQ6ZaET_zc5o9FDmuG-5" target="RWDQ6ZaET_zc5o9FDmuG-6">
                    <mxGeometry relative="1" as="geometry">
                        <Array as="points">
                            <mxPoint x="330" y="370"/>
                        </Array>
                    </mxGeometry>
                </mxCell>
                <mxCell id="RWDQ6ZaET_zc5o9FDmuG-26" value="Forward appeal submission" style="edgeLabel;html=1;align=center;verticalAlign=middle;resizable=0;points=[];" vertex="1" connectable="0" parent="RWDQ6ZaET_zc5o9FDmuG-25">
                    <mxGeometry x="-0.2098" y="1" relative="1" as="geometry">
                        <mxPoint x="14" as="offset"/>
                    </mxGeometry>
                </mxCell>
                <mxCell id="RWDQ6ZaET_zc5o9FDmuG-27" style="edgeStyle=none;html=1;" edge="1" parent="vh6OCvirTypBTCZl_1IV-1" source="RWDQ6ZaET_zc5o9FDmuG-5" target="RWDQ6ZaET_zc5o9FDmuG-6">
                    <mxGeometry relative="1" as="geometry">
                        <Array as="points">
                            <mxPoint x="330" y="410"/>
                        </Array>
                    </mxGeometry>
                </mxCell>
                <mxCell id="RWDQ6ZaET_zc5o9FDmuG-28" value="Validate appeal details" style="edgeLabel;html=1;align=center;verticalAlign=middle;resizable=0;points=[];" vertex="1" connectable="0" parent="RWDQ6ZaET_zc5o9FDmuG-27">
                    <mxGeometry x="-0.2103" y="2" relative="1" as="geometry">
                        <mxPoint x="14" as="offset"/>
                    </mxGeometry>
                </mxCell>
                <mxCell id="RWDQ6ZaET_zc5o9FDmuG-29" style="edgeStyle=none;html=1;" edge="1" parent="vh6OCvirTypBTCZl_1IV-1" source="RWDQ6ZaET_zc5o9FDmuG-8" target="RWDQ6ZaET_zc5o9FDmuG-3">
                    <mxGeometry relative="1" as="geometry"/>
                </mxCell>
                <mxCell id="RWDQ6ZaET_zc5o9FDmuG-30" value="Return appeal validation" style="edgeLabel;html=1;align=center;verticalAlign=middle;resizable=0;points=[];" vertex="1" connectable="0" parent="RWDQ6ZaET_zc5o9FDmuG-29">
                    <mxGeometry x="0.1265" y="1" relative="1" as="geometry">
                        <mxPoint x="13" y="-1" as="offset"/>
                    </mxGeometry>
                </mxCell>
                <mxCell id="RWDQ6ZaET_zc5o9FDmuG-31" style="edgeStyle=none;html=1;" edge="1" parent="vh6OCvirTypBTCZl_1IV-1" source="RWDQ6ZaET_zc5o9FDmuG-5" target="RWDQ6ZaET_zc5o9FDmuG-6">
                    <mxGeometry relative="1" as="geometry">
                        <Array as="points">
                            <mxPoint x="330" y="470"/>
                        </Array>
                    </mxGeometry>
                </mxCell>
                <mxCell id="RWDQ6ZaET_zc5o9FDmuG-32" value="Submit form" style="edgeLabel;html=1;align=center;verticalAlign=middle;resizable=0;points=[];" vertex="1" connectable="0" parent="RWDQ6ZaET_zc5o9FDmuG-31">
                    <mxGeometry x="-0.2103" y="2" relative="1" as="geometry">
                        <mxPoint x="14" as="offset"/>
                    </mxGeometry>
                </mxCell>
                <mxCell id="RWDQ6ZaET_zc5o9FDmuG-33" style="edgeStyle=none;html=1;" edge="1" parent="vh6OCvirTypBTCZl_1IV-1" source="RWDQ6ZaET_zc5o9FDmuG-8" target="RWDQ6ZaET_zc5o9FDmuG-9">
                    <mxGeometry relative="1" as="geometry">
                        <Array as="points">
                            <mxPoint x="520" y="490"/>
                        </Array>
                    </mxGeometry>
                </mxCell>
                <mxCell id="RWDQ6ZaET_zc5o9FDmuG-34" value="Store appeal in database" style="edgeLabel;html=1;align=center;verticalAlign=middle;resizable=0;points=[];" vertex="1" connectable="0" parent="RWDQ6ZaET_zc5o9FDmuG-33">
                    <mxGeometry x="-0.1175" y="3" relative="1" as="geometry">
                        <mxPoint as="offset"/>
                    </mxGeometry>
                </mxCell>
                <mxCell id="RWDQ6ZaET_zc5o9FDmuG-35" style="edgeStyle=none;html=1;" edge="1" parent="vh6OCvirTypBTCZl_1IV-1" source="RWDQ6ZaET_zc5o9FDmuG-11" target="RWDQ6ZaET_zc5o9FDmuG-6">
                    <mxGeometry relative="1" as="geometry">
                        <Array as="points">
                            <mxPoint x="510" y="520"/>
                        </Array>
                    </mxGeometry>
                </mxCell>
                <mxCell id="RWDQ6ZaET_zc5o9FDmuG-36" value="Return result of appeal" style="edgeLabel;html=1;align=center;verticalAlign=middle;resizable=0;points=[];" vertex="1" connectable="0" parent="RWDQ6ZaET_zc5o9FDmuG-35">
                    <mxGeometry x="0.1744" y="-1" relative="1" as="geometry">
                        <mxPoint x="16" as="offset"/>
                    </mxGeometry>
                </mxCell>
                <mxCell id="RWDQ6ZaET_zc5o9FDmuG-37" style="edgeStyle=none;html=1;" edge="1" parent="vh6OCvirTypBTCZl_1IV-1" source="RWDQ6ZaET_zc5o9FDmuG-8" target="RWDQ6ZaET_zc5o9FDmuG-3">
                    <mxGeometry relative="1" as="geometry">
                        <Array as="points">
                            <mxPoint x="320" y="530"/>
                        </Array>
                    </mxGeometry>
                </mxCell>
                <mxCell id="RWDQ6ZaET_zc5o9FDmuG-38" value="Return result of appeal" style="edgeLabel;html=1;align=center;verticalAlign=middle;resizable=0;points=[];" vertex="1" connectable="0" parent="RWDQ6ZaET_zc5o9FDmuG-37">
                    <mxGeometry x="0.295" y="1" relative="1" as="geometry">
                        <mxPoint x="26" as="offset"/>
                    </mxGeometry>
                </mxCell>
                <mxCell id="RWDQ6ZaET_zc5o9FDmuG-39" style="edgeStyle=none;html=1;" edge="1" parent="vh6OCvirTypBTCZl_1IV-1" source="RWDQ6ZaET_zc5o9FDmuG-5" target="RWDQ6ZaET_zc5o9FDmuG-0">
                    <mxGeometry relative="1" as="geometry">
                        <Array as="points">
                            <mxPoint x="150" y="540"/>
                        </Array>
                    </mxGeometry>
                </mxCell>
                <mxCell id="RWDQ6ZaET_zc5o9FDmuG-40" value="Display success message" style="edgeLabel;html=1;align=center;verticalAlign=middle;resizable=0;points=[];" vertex="1" connectable="0" parent="RWDQ6ZaET_zc5o9FDmuG-39">
                    <mxGeometry x="0.268" y="-2" relative="1" as="geometry">
                        <mxPoint x="23" as="offset"/>
                    </mxGeometry>
                </mxCell>
            </root>
        </mxGraphModel>
    </diagram>
</mxfile>